#N canvas 782 77 807 804 10;
#X obj 75 128 hsl 128 15 0 127 0 0 empty empty empty -2 -8 0 10 -262144
-1 -1 3600 1;
#X obj 438 131 hsl 128 15 0 127 0 0 empty empty empty -2 -8 0 10 -262144
-1 -1 0 1;
#X obj 289 554 tgl 15 0 empty empty CONNECT 23 7 0 10 -262144 -1 -1
1 1;
#X msg 233 141 send main/polyBg/lineSize \$1;
#X obj 263 50 hradio 15 1 0 8 empty empty empty 0 -8 0 10 -262144 -1
-1 0;
#N canvas 615 23 381 413 osc 1;
#X obj 47 256 mrpeach/udpsend;
#X obj 45 185 mrpeach/packOSC;
#X obj 194 180 bng 15 250 50 0 empty empty empty 17 7 0 10 -262144
-1 -1;
#X msg 238 172 disconnect;
#X obj 98 350 outlet;
#X obj 157 115 sel 1 0;
#X obj 139 80 inlet;
#X obj 41 81 inlet;
#X msg 161 215 connect 127.0.0.1 6666;
#X connect 0 0 4 0;
#X connect 1 0 0 0;
#X connect 2 0 8 0;
#X connect 3 0 0 0;
#X connect 5 0 2 0;
#X connect 5 1 3 0;
#X connect 6 0 5 0;
#X connect 7 0 1 0;
#X connect 8 0 0 0;
#X restore 215 655 pd osc;
#X obj 234 758 tgl 15 0 empty empty empty 17 7 0 10 -262144 -1 -1 0
1;
#X msg 387 220 /main/color \$1;
#X floatatom 468 179 5 0 0 0 - - -;
#X obj 421 191 i 0;
#X msg 24 217 send /main/birdmanager/size \$1;
#X connect 0 0 10 0;
#X connect 1 0 8 0;
#X connect 1 0 9 0;
#X connect 2 0 5 1;
#X connect 4 0 3 0;
#X connect 5 0 6 0;
#X connect 9 0 7 0;
#X connect 10 0 5 0;
